<?xml version="1.0" encoding="UTF-8" standalone="no"?>
<!-- Generator: Adobe Illustrator 18.1.1, SVG Export Plug-In . SVG Version: 6.00 Build 0)  -->

<svg
   xmlns:dc="http://purl.org/dc/elements/1.1/"
   xmlns:cc="http://creativecommons.org/ns#"
   xmlns:rdf="http://www.w3.org/1999/02/22-rdf-syntax-ns#"
   xmlns:svg="http://www.w3.org/2000/svg"
   xmlns="http://www.w3.org/2000/svg"
   xmlns:sodipodi="http://sodipodi.sourceforge.net/DTD/sodipodi-0.dtd"
   xmlns:inkscape="http://www.inkscape.org/namespaces/inkscape"
   version="1.1"
   id="Capa_1"
   x="0px"
   y="0px"
   viewBox="0 0 268.765 268.765"
   style="enable-background:new 0 0 268.765 268.765;"
   xml:space="preserve"
   width="512px"
   height="512px"
   sodipodi:docname="gear.svg"
   inkscape:version="0.92.3 (2405546, 2018-03-11)"><metadata
   id="metadata3849"><rdf:RDF><cc:Work
       rdf:about=""><dc:format>image/svg+xml</dc:format><dc:type
         rdf:resource="http://purl.org/dc/dcmitype/StillImage" /><dc:title></dc:title></cc:Work></rdf:RDF></metadata><defs
   id="defs3847">
	
</defs><sodipodi:namedview
   pagecolor="#ffffff"
   bordercolor="#666666"
   borderopacity="1"
   objecttolerance="10"
   gridtolerance="10"
   guidetolerance="10"
   inkscape:pageopacity="0"
   inkscape:pageshadow="2"
   inkscape:window-width="1853"
   inkscape:window-height="1145"
   id="namedview3845"
   showgrid="false"
   inkscape:zoom="1.8515625"
   inkscape:cx="256"
   inkscape:cy="256"
   inkscape:window-x="67"
   inkscape:window-y="383"
   inkscape:window-maximized="1"
   inkscape:current-layer="Capa_1"
   inkscape:pagecheckerboard="true" />
<g
   id="g3811">
		<path
   inkscape:connector-curvature="0"
   id="path3809"
   d="m 267.92,119.461 c -0.425,-3.778 -4.83,-6.617 -8.639,-6.617 -12.315,0 -23.243,-7.231 -27.826,-18.414 -4.682,-11.454 -1.663,-24.812 7.515,-33.231 2.889,-2.641 3.24,-7.062 0.817,-10.133 -6.303,-8.004 -13.467,-15.234 -21.289,-21.5 -3.063,-2.458 -7.557,-2.116 -10.213,0.825 -8.01,8.871 -22.398,12.168 -33.516,7.529 -11.57,-4.867 -18.866,-16.591 -18.152,-29.176 0.235,-3.953 -2.654,-7.39 -6.595,-7.849 -10.038,-1.161 -20.164,-1.197 -30.232,-0.08 -3.896,0.43 -6.785,3.786 -6.654,7.689 0.438,12.461 -6.946,23.98 -18.401,28.672 -10.985,4.487 -25.272,1.218 -33.266,-7.574 -2.642,-2.896 -7.063,-3.252 -10.141,-0.853 -8.054,6.319 -15.379,13.555 -21.74,21.493 -2.481,3.086 -2.116,7.559 0.802,10.214 9.353,8.47 12.373,21.944 7.514,33.53 -4.639,11.046 -16.109,18.165 -29.24,18.165 -4.261,-0.137 -7.296,2.723 -7.762,6.597 -1.182,10.096 -1.196,20.383 -0.058,30.561 0.422,3.794 4.961,6.608 8.812,6.608 11.702,-0.299 22.937,6.946 27.65,18.415 4.698,11.454 1.678,24.804 -7.514,33.23 -2.875,2.641 -3.24,7.055 -0.817,10.126 6.244,7.953 13.409,15.19 21.259,21.508 3.079,2.481 7.559,2.131 10.228,-0.81 8.04,-8.893 22.427,-12.184 33.501,-7.536 11.599,4.852 18.895,16.575 18.181,29.167 -0.233,3.955 2.67,7.398 6.595,7.85 5.135,0.599 10.301,0.898 15.481,0.898 4.917,0 9.835,-0.27 14.752,-0.817 3.897,-0.43 6.784,-3.786 6.653,-7.696 -0.451,-12.454 6.946,-23.973 18.386,-28.657 11.059,-4.517 25.286,-1.211 33.281,7.572 2.657,2.89 7.047,3.239 10.142,0.848 8.039,-6.304 15.349,-13.534 21.74,-21.494 2.48,-3.079 2.13,-7.559 -0.803,-10.213 -9.353,-8.47 -12.388,-21.946 -7.529,-33.524 4.568,-10.899 15.612,-18.217 27.491,-18.217 l 1.662,0.043 c 3.853,0.313 7.398,-2.655 7.865,-6.588 1.184,-10.105 1.198,-20.383 0.06,-30.561 z"
   style="clip-rule:evenodd;fill:#91dc5a;fill-rule:evenodd"
   sodipodi:nodetypes="csccccccccccccccccccccccccccccscccccccccccc" />
	</g>
<g
   id="g3814">
</g>
<g
   id="g3816">
</g>
<g
   id="g3818">
</g>
<g
   id="g3820">
</g>
<g
   id="g3822">
</g>
<g
   id="g3824">
</g>
<g
   id="g3826">
</g>
<g
   id="g3828">
</g>
<g
   id="g3830">
</g>
<g
   id="g3832">
</g>
<g
   id="g3834">
</g>
<g
   id="g3836">
</g>
<g
   id="g3838">
</g>
<g
   id="g3840">
</g>
<g
   id="g3842">
</g>
<text
   xml:space="preserve"
   style="font-style:normal;font-weight:normal;font-size:20.99726486px;line-height:1.25;font-family:sans-serif;letter-spacing:0px;word-spacing:0px;fill:#000000;fill-opacity:1;stroke:none;stroke-width:0.52493167"
   x="104.33072"
   y="165.56831"
   id="text3977"><tspan
     sodipodi:role="line"
     id="tspan3975"
     x="104.33072"
     y="165.56831"
     style="font-size:100.78687286px;stroke-width:0.52493167">6</tspan></text>
</svg>