<?xml version="1.0" encoding="UTF-8" standalone="no"?>
<svg xmlns:inkscape="http://www.inkscape.org/namespaces/inkscape" xmlns:rdf="http://www.w3.org/1999/02/22-rdf-syntax-ns#" xmlns="http://www.w3.org/2000/svg" xmlns:xlink="http://www.w3.org/1999/xlink" xmlns:ns1="http://sozi.baierouge.fr" xmlns:cc="http://web.resource.org/cc/" xmlns:dc="http://purl.org/dc/elements/1.1/" xmlns:sodipodi="http://inkscape.sourceforge.net/DTD/sodipodi-0.dtd" id="svg1" sodipodi:docname="krec_record.svg" viewBox="0 0 60 60" sodipodi:version="0.32" _SVGFile__filename="oldscale/actions/player_record.svg" version="1.0" y="0" x="0" inkscape:version="0.41" sodipodi:docbase="/home/danny/work/icons/primary/scalable/actions">
  <sodipodi:namedview id="base" bordercolor="#666666" inkscape:pageshadow="2" inkscape:window-y="0" pagecolor="#ffffff" inkscape:window-height="691" inkscape:zoom="4.5544063" inkscape:window-x="0" borderopacity="1.0" inkscape:current-layer="svg1" inkscape:cx="47.217792" inkscape:cy="17.274806" inkscape:window-width="1020" inkscape:pageopacity="0.0"/>
  <path id="path1711" sodipodi:rx="22.202742" sodipodi:ry="22.202742" style="stroke-linejoin:round;color:#000000;stroke:#ffffff;stroke-linecap:round;stroke-width:7.127;fill:none" sodipodi:type="arc" d="m14.5 20.805a22.203 22.203 0 1 1 -44.406 0 22.203 22.203 0 1 1 44.406 0z" transform="matrix(-1.14 3.5598e-7 -3.5598e-7 -1.14 21.218 53.719)" sodipodi:cy="20.805365" sodipodi:cx="-7.7029920"/>
  <path id="path1710" style="stroke-linejoin:round;fill-rule:evenodd;color:#000000;stroke:#000000;stroke-linecap:round;stroke-width:2.7412;fill:#ee5f4c" transform="matrix(-1.14 3.5598e-7 -3.5598e-7 -1.14 21.218 53.719)" d="m14.5 20.805c0 12.256-9.9471 22.203-22.203 22.203s-22.203-9.947-22.203-22.203 9.947-22.202 22.203-22.202c12.256-0.0004 22.203 9.9465 22.203 22.202z"/>
  <path id="path829" style="fill:#000000" d="m36.092 29.986c0-1.435 0.307-2.757 0.921-3.966 0.614-1.219 1.471-2.176 2.572-2.87 1.11-0.695 2.374-1.043 3.791-1.043 0.749 0 1.521 0.09 2.315 0.271 0.794 0.171 1.462 0.469 2.004 0.893 0.541 0.425 0.812 0.998 0.812 1.72 0 0.577-0.171 1.06-0.514 1.448-0.334 0.388-0.754 0.583-1.259 0.583-0.244 0-0.483-0.041-0.718-0.122-0.226-0.082-0.456-0.167-0.69-0.258-0.226-0.099-0.47-0.18-0.731-0.243-0.253-0.063-0.574-0.095-0.962-0.095-0.704 0-1.299 0.167-1.787 0.501-0.478 0.325-0.839 0.767-1.083 1.327-0.235 0.55-0.352 1.169-0.352 1.854 0 0.668 0.117 1.291 0.352 1.869 0.235 0.568 0.573 1.02 1.016 1.354 0.451 0.334 0.983 0.501 1.597 0.501 0.695 0 1.395-0.131 2.099-0.393s1.123-0.393 1.259-0.393c0.325 0 0.622 0.095 0.893 0.285 0.271 0.189 0.483 0.437 0.636 0.744 0.163 0.298 0.244 0.605 0.244 0.921 0 0.668-0.293 1.232-0.88 1.692-0.577 0.46-1.268 0.794-2.071 1.002-0.804 0.217-1.53 0.325-2.18 0.325-1.074 0-2.058-0.199-2.951-0.596-0.885-0.397-1.657-0.961-2.315-1.692-0.659-0.74-1.16-1.589-1.503-2.545-0.343-0.966-0.515-1.99-0.515-3.074zm-2.951 1.449h-7.812c0 0.587 0.271 1.142 0.813 1.665 0.541 0.515 1.426 0.772 2.653 0.772 0.632 0 1.155-0.081 1.571-0.244 0.415-0.162 0.925-0.392 1.529-0.69 0.614-0.307 1.056-0.46 1.327-0.46 0.506 0 0.934 0.176 1.286 0.528s0.528 0.807 0.528 1.367c0 0.668-0.334 1.277-1.002 1.828-0.658 0.541-1.511 0.956-2.558 1.245-1.047 0.298-2.126 0.447-3.236 0.447-1.146 0-2.184-0.199-3.114-0.596-0.92-0.397-1.719-0.956-2.396-1.679-0.668-0.731-1.178-1.579-1.53-2.545-0.352-0.975-0.528-2.003-0.528-3.087 0-1.019 0.185-2.012 0.555-2.978s0.894-1.814 1.571-2.545c0.676-0.731 1.484-1.304 2.423-1.72 0.939-0.424 1.945-0.636 3.019-0.636 1.381 0 2.604 0.348 3.669 1.043 1.065 0.694 1.886 1.606 2.464 2.734 0.587 1.129 0.88 2.338 0.88 3.629 0 0.74-0.167 1.245-0.501 1.516s-0.871 0.406-1.611 0.406zm-7.812-3.005h5.592c0-0.343-0.122-0.723-0.366-1.138-0.244-0.424-0.578-0.776-1.002-1.056-0.415-0.289-0.889-0.433-1.421-0.433-0.533 0-1.016 0.144-1.449 0.433-0.424 0.289-0.758 0.641-1.002 1.056-0.234 0.406-0.352 0.786-0.352 1.138zm-13.836 6.904v-10.695c0-0.641 0.198-1.174 0.596-1.598 0.406-0.433 0.925-0.65 1.556-0.65 0.524 0 0.975 0.14 1.354 0.42 0.388 0.271 0.659 0.591 0.813 0.961 0.929-1.11 1.927-1.665 2.992-1.665 0.586 0 1.101 0.212 1.543 0.636 0.451 0.416 0.677 0.953 0.677 1.611 0 0.677-0.212 1.169-0.636 1.476-0.416 0.307-1.106 0.6-2.072 0.88-0.984 0.28-1.647 0.632-1.99 1.056-0.343 0.415-0.514 1.164-0.514 2.248v5.32c0 0.641-0.203 1.183-0.61 1.625-0.397 0.433-0.916 0.65-1.557 0.65-0.631 0-1.15-0.217-1.556-0.65-0.398-0.442-0.596-0.984-0.596-1.625z"/>
  <metadata>
    <rdf:RDF>
      <cc:Work>
        <dc:format>image/svg+xml</dc:format>
        <dc:type rdf:resource="http://purl.org/dc/dcmitype/StillImage"/>
        <cc:license rdf:resource="http://creativecommons.org/licenses/publicdomain/"/>
        <dc:publisher>
          <cc:Agent rdf:about="http://openclipart.org/">
            <dc:title>Openclipart</dc:title>
          </cc:Agent>
        </dc:publisher>
      </cc:Work>
      <cc:License rdf:about="http://creativecommons.org/licenses/publicdomain/">
        <cc:permits rdf:resource="http://creativecommons.org/ns#Reproduction"/>
        <cc:permits rdf:resource="http://creativecommons.org/ns#Distribution"/>
        <cc:permits rdf:resource="http://creativecommons.org/ns#DerivativeWorks"/>
      </cc:License>
    </rdf:RDF>
  </metadata>
</svg>